@startuml
skinparam defaultFontSize 35
skinparam classAttributeIconSize 0
skinparam packageStyle rectangle
left to right direction

    class BugPageQueryStrategyFactory {
        - strategyMap : Map<String, BugPageQueryStrategy>
        + BugPageQueryStrategyFactory(strategies : List<BugPageQueryStrategy>)
        + getStrategy(source : String) : BugPageQueryStrategy
    }

    interface BugPageQueryStrategy {
        + getSource() : String
        + pageQuery(request : BugQueryRequest) : IPage
    }

    abstract class AbstractBugPageQueryTemplate<T> {
        # doPageQuery(request : BugQueryRequest) : IPage
        # buildWrapper(request : BugQueryRequest) : QueryWrapper<T>
        # applyFilterToWrapper(wrapper : QueryWrapper<T>, filter : Filter) : void
    }

    class TrinityBugPageQueryStrategy {
        + getSource() : String
        + pageQuery(request : BugQueryRequest) : IPage
    }

    class JiraBugPageQueryStrategy {
        + getSource() : String
        + pageQuery(request : BugQueryRequest) : IPage
    }

    class BugClosePageQueryStrategy {
        + getSource() : String
        + pageQuery(request : BugQueryRequest) : IPage
    }

BugPageQueryStrategyFactory o--> BugPageQueryStrategy

BugPageQueryStrategy <|.. AbstractBugPageQueryTemplate
AbstractBugPageQueryTemplate<|-- TrinityBugPageQueryStrategy
AbstractBugPageQueryTemplate<|-- JiraBugPageQueryStrategy
AbstractBugPageQueryTemplate<|-- BugClosePageQueryStrategy

@enduml